<svg xmlns="http://www.w3.org/2000/svg" id="Layer_1" viewBox="0 0 727.8 86" class="undefined">
                                <title>Kommoedchen</title>
                                <path d="M119.5 24c-19.2 0-32.8 13-32.8 31.6C86.8 73 100.6 86 118.9 86c19.7 0 33.2-12.8 33.2-31.2C152.2 36.6 138.7 24 119.5 24zM119.3 71.9c-5.5 0-7.7-4.7-7.7-16.4 0-12.1 2.3-16.8 8-16.8 5.5 0 7.7 4.6 7.7 15.7C127.3 67.1 125.2 71.9 119.3 71.9z" class="a"/><polygon points="67.3 4.8 45.2 4.8 23.2 37.8 23.2 4.8 0 4.8 0 84.8 23.2 84.8 23.2 66.4 31.4 54.6 45.2 84.8 72.2 84.8 47.2 34.1 " class="a"/><path d="M334.7 15.6c4.2 0 7.7-3.5 7.7-7.8 0-4.2-3.5-7.7-7.7-7.7 -4.3 0-7.8 3.5-7.8 7.7C326.9 12.1 330.4 15.6 334.7 15.6z" class="a"/><path d="M314.5 15.5c4.1 0 7.6-3.5 7.6-7.7 0-4.3-3.5-7.8-7.7-7.8 -4.3 0-7.8 3.5-7.8 7.8S310.1 15.5 314.5 15.5z" class="a"/><path d="M244.1 28.7c-3.4-3-8.2-4.7-13.3-4.7 -8.3 0-13.4 2.6-17.9 9.2 -3.6-6.2-9-9.2-16.8-9.2 -7.3 0-12.8 3.1-16.3 9.2v-8h-21v59.6h22.4V47.5c0-4.7 2-7.1 6-7.1 3.5 0 5.3 2.5 5.3 7.1v37.3h22.4V50.3c0-6.7 1.9-9.5 6.6-9.5 3.7 0 4.9 1.7 4.9 6.7v37.3h22.7V44.3C249.1 35.8 248 32.3 244.1 28.7z" class="a"/><path d="M401.4 4.8V30c-4.4-4.8-8.5-6.6-14.5-6.6 -14.3 0-23.5 12.2-23.5 31.2 0 19.7 8.6 31.4 23.2 31.4 7.7 0 11.9-2.4 16.1-9.1v7.9h21.8v-80H401.4zM401.4 61.2c0 5.9-2.5 9.4-6.7 9.4 -4.9 0-7.3-4.7-7.3-14.5 0-12 2.3-17.5 7.3-17.5 4.6 0 6.7 2.6 6.7 7.9V61.2z" class="a"/><path d="M723 29c-3.5-3.2-8.6-5-14.5-5 -8.3 0-13.3 2.9-17.2 9.6v-8.4h-21.7v59.6H693V49c0-5.9 2-8.9 6.2-8.9 3.8 0 5.2 1.9 5.2 7.2v37.6h23.4V46.7C727.8 36.1 726.8 32.6 723 29z" class="a"/><path d="M665.3 56.4c0-19.8-12.5-32.4-31.9-32.4 -19 0-32.5 13.3-32.5 31.8 0 17.9 13.6 30.2 33 30.2 16.6 0 28.2-7.8 31.3-21.1l-21.7-1.4c-1.3 5.3-3.7 7.3-8.8 7.3 -6.8 0-9.2-2.8-9.4-11h39.8C665.3 58.3 665.3 56.9 665.3 56.4zM625.2 48c0.1-7 2.8-10.2 8.6-10.2 5.4 0 7.8 3.1 8 10.2H625.2z" class="a"/><path d="M472.2 69.6c-5.3 0-7.6-4.3-7.6-14.3 0-11 2-15.4 7.4-15.4 4.1 0 5.6 2 7 9.5l20.4-1.8C497.3 32.8 487 24 471.4 24c-18 0-30.6 13-30.6 31.4 0 18.2 12.5 30.6 30.7 30.6 15.8 0 25.8-8.3 28.3-23.5l-19.9-1.7C478.9 67 476.5 69.6 472.2 69.6z" class="a"/><path d="M324.6 24c-19.2 0-32.8 13-32.8 31.6C291.8 73 305.6 86 324 86c19.7 0 33.2-12.8 33.2-31.2C357.2 36.6 343.8 24 324.6 24zM324.4 71.9c-5.5 0-7.7-4.7-7.7-16.4 0-12.1 2.3-16.8 8-16.8 5.5 0 7.7 4.6 7.7 15.7C332.4 67.1 330.2 71.9 324.4 71.9z" class="a"/><path d="M565.7 24c-7 0-12 2.5-16.4 8.3V4.8h-23.4v80h23.4V51.1v-3.6c0-4.4 2.5-7.2 6.5-7.2 3.4 0 5.3 2 5.3 5.5V49v35.9h23.4V46.1c0-9.4-0.6-11.9-3.4-15.5C577.7 26.3 572.3 24 565.7 24z" class="a"/></svg>
